<?xml version="1.0" encoding="iso-8859-1"?>
<!-- Generator: Adobe Illustrator 16.0.0, SVG Export Plug-In . SVG Version: 6.00 Build 0)  -->
<!DOCTYPE svg PUBLIC "-//W3C//DTD SVG 1.1//EN" "http://www.w3.org/Graphics/SVG/1.1/DTD/svg11.dtd">
<svg version="1.1" id="Capa_1" xmlns="http://www.w3.org/2000/svg" xmlns:xlink="http://www.w3.org/1999/xlink" x="0px" y="0px"
	 width="180.039px" height="180.038px" viewBox="0 0 180.039 180.038" style="enable-background:new 0 0 180.039 180.038;"
	 xml:space="preserve">
<g>
	<path d="M158.635,30.405c-20.1-26.559-55.1-35.151-86.637-27.987c-33.838,7.687-59.865,37.004-66.457,70.54
		c-5.499,27.978,5.104,55.61,22.625,77.245c8.451,10.436,18.938,17.342,31.109,22.657c10.369,4.528,22.945,9.499,34.188,5.999
		c6.031-0.361,11.978-0.61,18.109-2.261c8.448-2.275,16.395-6.374,23.575-11.305c13.928-9.561,24.418-23.556,31.449-38.768
		C180.79,95.818,179.381,57.818,158.635,30.405z M23.521,108.578c-0.181-0.253-0.363-0.506-0.544-0.759
		c0.195-0.016,0.382-0.062,0.57-0.12c0.913,1.427,1.811,2.864,2.706,4.302C25.396,110.815,24.484,109.675,23.521,108.578z
		 M104.875,36.957c-2.524-0.907-5.135-1.643-7.801-2.203c0.181-0.093,0.345-0.202,0.492-0.326c0.438-0.022,0.874-0.045,1.312-0.069
		c0.065,0.019,0.132,0.039,0.198,0.058C100.996,35.292,102.928,36.139,104.875,36.957z M58.8,18.241
		c0,0.043-0.006,0.085-0.004,0.128c-0.388,0.227-0.784,0.435-1.165,0.676c-0.502,0.318-0.848,0.735-1.084,1.19
		c-0.237,0.185-0.489,0.353-0.724,0.541c0.007-0.043,0.019-0.085,0.025-0.129c0.038-0.229,0.038-0.462,0.022-0.695
		C56.83,19.349,57.806,18.781,58.8,18.241z M114.747,10.27c-1.397-0.547-2.809-1.049-4.232-1.504
		c7.289,1.624,14.318,4.249,20.814,7.869C125.98,14.014,120.471,11.825,114.747,10.27z M53.383,162.326
		c3.488,1.711,6.999,3.374,10.455,5.14c0.119,0.076,0.24,0.148,0.36,0.226C60.426,166.092,56.783,164.288,53.383,162.326z
		 M127.795,151.193c-1.079,0.614-2.174,1.201-3.292,1.751c1.953-1.271,3.906-2.54,5.864-3.803
		C129.514,149.831,128.657,150.514,127.795,151.193z M136.861,120.579c-7.242,14.654-28.549,12.885-42.104,12.22
		c-11.802-0.579-26.178,1.315-36.937-4.441c-9.699-5.191-9.256-19.669-9.394-28.999c-0.2-13.583-1.1-27.675,2.689-40.87
		C55.741,42.381,71.569,39.228,86.33,40.05c12.632,0.704,25.501,4.938,32.993,15.031c0.629,1.09,1.31,2.159,2.048,3.201
		c0.291,0.515,0.59,1.021,0.855,1.562c0.023,0.047,0.045,0.094,0.068,0.141c0.799,4.836,1.396,9.648,0.854,14.615
		c-0.185,1.695,1.457,2.686,2.868,2.868c5.017,0.646,10.073,0.925,15.132,0.98C141.681,92.605,143.237,107.678,136.861,120.579z
		 M158.802,70.633c0.035-1.227,0.052-2.454,0.05-3.682c0.329,0.094,0.657,0.19,0.993,0.253
		C159.478,68.343,159.131,69.486,158.802,70.633z M168.624,75.129c-0.21-0.051-0.423-0.083-0.641-0.1
		c0.023-1.946-0.023-3.897-0.136-5.853C168.177,71.149,168.436,73.134,168.624,75.129z M167.171,97.61
		c0.547-2.302,1.056-4.615,1.526-6.939c-0.189,2.312-0.467,4.621-0.826,6.921C167.636,97.574,167.401,97.577,167.171,97.61z"/>
	<path d="M114.608,101.401c-4.438-1.653-11.113,0.457-15.842,0.676c-7.47,0.347-14.862-0.03-22.254-1.124
		c-4.101-0.606-5.926,5.098-1.752,6.356c6.958,2.099,14.559,2.121,21.767,2.021c5.599-0.078,14.868,0.717,19.33-3.196
		C117.593,104.611,116.449,102.088,114.608,101.401z"/>
	<path d="M100.062,70.009c-0.336-1.107-1.277-2.282-2.491-2.491c-6.816-1.172-15.211-1.56-21.979-0.062
		c-2.785,0.617-2.776,4.979,0,5.601c4.667,1.047,9.559,0.758,14.312,0.948C92.818,74.121,101.875,75.973,100.062,70.009z"/>
</g>
<g>
</g>
<g>
</g>
<g>
</g>
<g>
</g>
<g>
</g>
<g>
</g>
<g>
</g>
<g>
</g>
<g>
</g>
<g>
</g>
<g>
</g>
<g>
</g>
<g>
</g>
<g>
</g>
<g>
</g>
</svg>
