<!-- Generated by IcoMoon.io -->
<svg version="1.1" xmlns="http://www.w3.org/2000/svg" width="512" height="512" viewBox="0 0 512 512">
<title></title>
<g id="icomoon-ignore">
</g>
<path d="M256 0c-141.385 0-256 114.615-256 256s114.615 256 256 256 256-114.615 256-256-114.615-256-256-256zM352 128c17.673 0 32 14.327 32 32s-14.327 32-32 32-32-14.327-32-32 14.327-32 32-32zM160 128c17.673 0 32 14.327 32 32s-14.327 32-32 32-32-14.327-32-32 14.327-32 32-32zM256 416c-58.255 0-109.232-31.137-137.213-77.672l41.164-24.698c19.587 32.574 55.271 54.37 96.049 54.37s76.462-21.796 96.049-54.37l41.164 24.698c-27.981 46.535-78.958 77.672-137.213 77.672z"></path>
</svg>
