<?xml version="1.0" standalone="no"?>
<!DOCTYPE svg PUBLIC "-//W3C//DTD SVG 20010904//EN"
 "http://www.w3.org/TR/2001/REC-SVG-20010904/DTD/svg10.dtd">
<svg version="1.0" xmlns="http://www.w3.org/2000/svg"
 width="454.000000pt" height="454.000000pt" viewBox="0 0 454.000000 454.000000"
 preserveAspectRatio="xMidYMid meet">
<metadata>
Created by potrace 1.11, written by Peter Selinger 2001-2013
</metadata>
<g transform="translate(0.000000,454.000000) scale(0.100000,-0.100000)"
fill="#000000" stroke="none">
<path d="M0 3711 c0 -824 0 -829 20 -824 11 3 20 0 20 -6 0 -7 9 -9 24 -5 19
4 24 2 22 -11 -1 -9 -8 -20 -15 -25 -9 -5 -10 -10 -2 -14 6 -4 11 -2 11 4 0 6
5 8 12 4 7 -5 9 0 6 14 -4 15 1 26 17 36 12 8 26 12 30 8 9 -10 55 -10 55 0 0
4 5 8 10 8 6 0 10 -10 10 -21 0 -18 2 -19 15 -9 12 10 13 16 4 27 -9 10 -9 17
-1 25 9 9 12 7 12 -9 0 -23 39 -36 62 -22 9 6 6 9 -9 9 -27 0 -30 22 -7 41 15
12 16 11 9 -10 -6 -19 -4 -23 9 -18 8 3 18 2 21 -3 10 -16 25 -12 25 6 0 10 6
14 15 10 8 -3 15 -1 15 3 0 5 -6 12 -12 14 -10 4 -10 6 0 6 8 1 16 -8 19 -19
3 -11 9 -20 13 -20 5 0 16 -3 24 -6 11 -4 15 -2 11 8 -4 10 2 14 22 13 15 0
31 4 35 10 4 5 8 0 8 -12 0 -13 3 -23 6 -23 8 0 30 24 37 40 4 10 6 8 6 -7 l1
-22 26 24 c24 23 28 23 39 8 9 -12 14 -13 20 -3 6 10 9 9 16 -1 6 -10 9 -8 9
7 0 13 8 24 20 27 15 4 20 0 20 -16 0 -13 4 -17 8 -11 12 18 65 31 117 30 33
-1 54 4 62 14 9 10 12 11 13 3 0 -20 20 -15 21 5 0 10 3 12 6 4 2 -6 9 -10 14
-6 5 3 9 0 9 -5 0 -16 16 -13 36 6 15 16 17 16 30 -2 12 -16 14 -16 19 -2 17
54 16 53 26 30 9 -26 29 -31 29 -8 0 18 17 20 22 3 3 -8 9 -4 17 10 14 25 36
29 45 7 4 -12 10 -13 24 -6 11 6 24 6 35 0 14 -8 19 -5 27 15 5 15 12 26 15
26 4 0 3 -5 -1 -11 -12 -20 17 -27 48 -11 26 12 32 12 39 1 7 -11 9 -10 9 4 0
11 8 17 23 17 17 0 19 -2 7 -10 -8 -5 -12 -12 -8 -15 3 -3 12 0 20 8 16 16 69
17 81 2 4 -6 10 -5 16 4 6 9 19 12 39 8 20 -4 32 -2 36 6 2 7 5 5 5 -4 1 -14
6 -15 34 -5 17 6 38 15 45 19 7 5 12 3 12 -5 0 -10 3 -9 9 2 6 8 7 18 5 22 -3
4 -1 8 5 8 15 0 23 -18 11 -25 -5 -3 -10 -16 -10 -28 1 -20 1 -21 11 -4 8 14
14 16 25 6 10 -8 14 -8 14 0 0 18 18 13 23 -6 4 -14 5 -12 6 5 1 28 21 29 21
1 0 -21 1 -21 26 -4 14 9 28 14 31 11 3 -3 11 1 17 10 14 19 47 25 63 12 9 -7
15 -5 19 6 3 9 10 14 15 11 4 -3 18 0 30 7 17 10 23 10 26 1 6 -16 33 -17 33
-2 0 6 6 9 13 6 6 -2 24 2 40 10 15 8 27 9 27 3 0 -5 26 -9 61 -9 39 1 64 -3
69 -11 4 -7 24 -14 44 -15 20 -1 44 -9 54 -18 10 -10 24 -17 31 -17 11 0 30
-13 88 -60 17 -14 31 -12 64 7 16 10 29 25 29 35 0 10 5 18 10 18 6 0 10 -10
10 -22 0 -21 0 -21 18 -2 12 14 33 20 72 22 76 4 93 6 106 14 13 9 54 -1 54
-13 0 -5 11 -4 24 1 15 5 37 5 55 0 36 -10 82 -4 93 13 5 8 8 6 8 -5 0 -20 36
-43 45 -28 3 5 15 6 28 1 12 -4 39 -6 61 -3 l39 5 -7 -37 c-8 -42 -1 -45 26
-14 l20 23 -7 -28 c-4 -16 -3 -27 3 -27 6 0 15 -12 20 -27 7 -18 11 -22 11
-10 1 20 17 23 24 5 4 -10 6 -10 6 0 1 6 9 12 19 12 10 0 23 5 30 12 9 9 15 9
24 0 9 -9 9 -12 0 -12 -17 0 -15 -18 3 -36 8 -9 15 -23 14 -32 0 -11 -2 -12
-6 -4 -9 24 -23 12 -17 -15 9 -37 9 -37 36 -19 24 15 25 15 38 -19 15 -37 42
-50 33 -15 -3 11 0 20 6 20 6 0 11 -7 11 -16 0 -8 5 -12 11 -8 8 4 8 9 0 17
-6 6 -11 19 -11 28 0 13 7 17 29 14 24 -3 28 -1 24 15 -4 14 -13 18 -37 17
-28 -2 -32 -5 -28 -26 3 -16 1 -22 -7 -17 -6 4 -11 13 -11 21 0 9 -10 13 -27
12 -23 -2 -29 2 -31 25 -3 22 3 30 28 43 30 16 32 16 37 -5 3 -12 11 -19 17
-17 6 2 20 1 31 -3 11 -4 25 -4 30 0 18 15 60 16 57 2 -2 -10 2 -10 18 -2 17
9 20 8 20 -13 l0 -24 54 26 c30 14 52 29 49 34 -2 4 1 7 7 7 7 0 14 -9 17 -21
4 -15 11 -19 25 -15 14 3 22 -1 25 -15 6 -22 14 -24 32 -6 11 10 13 8 8 -11
-4 -18 -2 -22 10 -18 8 3 18 6 23 6 5 0 11 8 14 18 4 13 4 13 3 -3 -1 -11 6
-28 16 -38 16 -16 21 -17 35 -4 17 15 73 36 60 22 -3 -3 2 -15 13 -26 23 -23
29 -24 29 -3 0 14 2 14 15 0 13 -13 14 -23 5 -55 -5 -21 -17 -42 -25 -45 -8
-3 -15 -12 -15 -21 0 -13 6 -11 30 7 17 12 30 27 30 33 0 12 109 105 123 105
5 0 6 -4 3 -8 -2 -4 4 -13 14 -20 14 -9 19 -8 24 4 3 8 10 13 15 10 5 -4 12 0
14 6 3 8 6 9 6 2 1 -6 12 -9 26 -6 20 3 25 0 25 -17 0 -12 6 -21 14 -21 8 0
18 -9 21 -20 3 -11 11 -20 16 -20 6 0 7 5 4 10 -9 14 7 12 29 -5 12 -9 17 -22
13 -35 -6 -23 11 -39 23 -20 9 15 30 -17 30 -46 0 -16 1 -16 15 2 12 16 14
152 15 942 l0 922 -2270 0 -2270 0 0 -829z m235 539 c3 -5 1 -10 -4 -10 -6 0
-11 5 -11 10 0 6 2 10 4 10 3 0 8 -4 11 -10z m3515 -30 c0 -5 -4 -10 -10 -10
-5 0 -10 5 -10 10 0 6 5 10 10 10 6 0 10 -4 10 -10z m-240 -174 c0 -3 -4 -8
-10 -11 -5 -3 -10 -1 -10 4 0 6 5 11 10 11 6 0 10 -2 10 -4z m-3410 -140 c0
-3 -4 -8 -10 -11 -5 -3 -10 -1 -10 4 0 6 5 11 10 11 6 0 10 -2 10 -4z m1780
-31 c0 -8 -4 -15 -10 -15 -5 0 -10 7 -10 15 0 8 5 15 10 15 6 0 10 -7 10 -15z
m-805 -55 c3 -5 1 -10 -4 -10 -6 0 -11 5 -11 10 0 6 2 10 4 10 3 0 8 -4 11
-10z m565 -56 c0 -8 -4 -12 -10 -9 -5 3 -10 10 -10 16 0 5 5 9 10 9 6 0 10 -7
10 -16z m-140 -44 c0 -5 -2 -10 -4 -10 -3 0 -8 5 -11 10 -3 6 -1 10 4 10 6 0
11 -4 11 -10z m-1290 -10 c0 -5 -4 -10 -10 -10 -5 0 -10 5 -10 10 0 6 5 10 10
10 6 0 10 -4 10 -10z m1675 0 c3 -5 1 -10 -4 -10 -6 0 -11 5 -11 10 0 6 2 10
4 10 3 0 8 -4 11 -10z m2555 -50 c0 -5 -4 -10 -10 -10 -5 0 -10 5 -10 10 0 6
5 10 10 10 6 0 10 -4 10 -10z m-2890 -20 c0 -5 -5 -10 -11 -10 -5 0 -7 5 -4
10 3 6 8 10 11 10 2 0 4 -4 4 -10z m220 -10 c0 -5 -4 -10 -10 -10 -5 0 -10 5
-10 10 0 6 5 10 10 10 6 0 10 -4 10 -10z m80 -20 c0 -5 -5 -10 -11 -10 -5 0
-7 5 -4 10 3 6 8 10 11 10 2 0 4 -4 4 -10z m1010 -56 c0 -8 -5 -12 -10 -9 -6
4 -8 11 -5 16 9 14 15 11 15 -7z m-1220 -24 c0 -5 -2 -10 -4 -10 -3 0 -8 5
-11 10 -3 6 -1 10 4 10 6 0 11 -4 11 -10z m310 0 c0 -5 -4 -10 -10 -10 -5 0
-10 5 -10 10 0 6 5 10 10 10 6 0 10 -4 10 -10z m1030 -10 c0 -5 -4 -10 -10
-10 -5 0 -10 5 -10 10 0 6 5 10 10 10 6 0 10 -4 10 -10z m130 -10 c0 -5 -4
-10 -10 -10 -5 0 -10 5 -10 10 0 6 5 10 10 10 6 0 10 -4 10 -10z m-580 -20 c0
-5 -4 -10 -10 -10 -5 0 -10 5 -10 10 0 6 5 10 10 10 6 0 10 -4 10 -10z m-494
-57 c-10 -10 -19 5 -10 18 6 11 8 11 12 0 2 -7 1 -15 -2 -18z m2144 -3 c0 -5
-2 -10 -4 -10 -3 0 -8 5 -11 10 -3 6 -1 10 4 10 6 0 11 -4 11 -10z m-1868 -15
c0 -5 -5 -11 -11 -13 -6 -2 -11 4 -11 13 0 9 5 15 11 13 6 -2 11 -8 11 -13z
m-152 -75 c0 -5 -2 -10 -4 -10 -3 0 -8 5 -11 10 -3 6 -1 10 4 10 6 0 11 -4 11
-10z m-1700 -130 c0 -5 -4 -10 -10 -10 -5 0 -10 5 -10 10 0 6 5 10 10 10 6 0
10 -4 10 -10z m3660 -51 c0 -5 -4 -9 -10 -9 -5 0 -10 7 -10 16 0 8 5 12 10 9
6 -3 10 -10 10 -16z m410 -49 c0 -5 -4 -10 -10 -10 -5 0 -10 5 -10 10 0 6 5
10 10 10 6 0 10 -4 10 -10z m-1990 -73 c0 -5 -4 -5 -10 -2 -5 3 -10 14 -10 23
0 15 2 15 10 2 5 -8 10 -19 10 -23z m1728 -108 c-2 -6 -8 -10 -13 -10 -5 0
-11 4 -13 10 -2 6 4 11 13 11 9 0 15 -5 13 -11z m-308 -59 c0 -11 -4 -20 -9
-20 -5 0 -7 9 -4 20 3 11 7 20 9 20 2 0 4 -9 4 -20z m242 -2 c-7 -7 -12 -8
-12 -2 0 6 3 14 7 17 3 4 9 5 12 2 2 -3 -1 -11 -7 -17z m215 -13 c-15 -16 -19
-13 -11 9 3 9 10 13 15 10 5 -3 3 -11 -4 -19z m70 -87 c2 -17 0 -19 -7 -8 -5
8 -6 18 -4 22 8 12 10 10 11 -14z"/>
<path d="M1896 3055 c-6 -18 16 -30 39 -21 8 3 15 12 15 21 0 20 -46 20 -54 0z"/>
<path d="M2918 2906 c-62 -33 -126 -91 -115 -102 4 -4 20 4 35 18 l27 26 17
-22 c12 -17 31 -25 65 -29 89 -12 180 -41 175 -57 -3 -8 9 -2 27 14 17 17 31
25 31 18 0 -6 -4 -14 -10 -17 -5 -3 -10 -13 -10 -22 0 -13 3 -13 15 -3 19 16
19 1 0 -27 -14 -20 -14 -23 6 -34 16 -8 20 -8 14 1 -4 6 5 33 19 60 20 36 24
56 20 80 -6 28 -8 30 -17 14 -13 -25 -30 -35 -37 -24 -3 5 -24 3 -49 -6 -40
-14 -47 -13 -100 7 -31 12 -76 24 -101 28 l-45 7 54 52 c30 29 50 51 45 51 -5
-1 -35 -15 -66 -33z"/>
<path d="M3436 2924 c-8 -22 -8 -23 12 -20 9 2 16 6 15 9 -2 4 -3 12 -3 17 0
16 -17 12 -24 -6z"/>
<path d="M2110 2898 c-5 -13 -14 -47 -19 -76 -13 -63 -56 -152 -74 -152 -7 0
-18 -12 -25 -27 l-12 -28 4 28 c2 17 -1 26 -8 24 -16 -5 -19 -60 -7 -115 8
-41 7 -52 -14 -92 -56 -109 -69 -127 -99 -136 -18 -5 -37 -21 -46 -39 -8 -16
-25 -38 -37 -48 -13 -10 -23 -30 -23 -44 0 -26 -48 -113 -62 -113 -5 0 -8 23
-8 52 0 48 1 50 15 32 13 -18 14 -15 15 29 0 60 -18 136 -38 160 -25 29 -25
12 3 -66 15 -42 25 -82 22 -89 -5 -13 -6 -10 -23 40 -5 14 -8 11 -19 -13 -16
-35 -18 -27 -19 72 -1 58 -5 77 -23 100 -13 15 -30 43 -39 61 -9 18 -20 29
-23 23 -7 -11 -41 21 -41 39 0 6 -11 16 -25 22 -14 6 -25 17 -25 24 0 8 -11
16 -25 20 -14 3 -22 10 -19 15 10 16 -9 9 -21 -8 -12 -16 -14 -16 -39 0 -15
10 -24 21 -22 26 4 6 -90 8 -126 2 -14 -2 -8 -29 7 -35 18 -6 20 -26 3 -26 -6
0 -20 7 -30 17 -16 14 -18 14 -18 0 0 -8 4 -17 9 -19 4 -1 12 -13 15 -25 8
-26 -3 -29 -36 -12 -33 18 -65 20 -77 5 -9 -11 -9 -16 2 -23 8 -4 17 -17 21
-28 5 -19 2 -20 -37 -17 l-42 4 19 -21 c19 -21 19 -21 -1 -21 -12 0 -25 -11
-31 -25 -15 -32 -15 -48 -2 -40 6 3 10 2 10 -4 0 -23 -19 -18 -30 8 -17 41 3
108 36 123 13 6 24 16 24 22 0 19 -43 16 -65 -4 -12 -11 -30 -18 -42 -16 -15
3 -28 -5 -43 -24 -25 -33 -70 -65 -70 -51 0 5 18 28 41 51 23 23 39 44 36 46
-12 13 -48 -20 -86 -78 -23 -35 -41 -56 -41 -47 0 22 45 87 87 127 35 33 39
50 8 39 -35 -14 -130 -187 -149 -272 -6 -29 -6 -29 9 -10 9 11 21 28 28 38 10
15 12 -3 12 -100 -1 -105 -4 -124 -24 -158 -31 -52 -13 -68 27 -24 17 19 33
31 37 28 12 -12 12 -139 0 -214 -6 -41 -10 -75 -7 -75 2 0 28 25 58 55 l54 54
0 -49 c0 -47 11 -65 24 -37 3 6 4 -13 3 -44 l-3 -57 50 40 51 41 3 -62 c3 -71
16 -78 56 -30 24 28 26 29 26 9 0 -12 -17 -45 -37 -73 -20 -27 -51 -84 -68
-126 -17 -42 -40 -94 -51 -116 -12 -22 -35 -77 -54 -122 -18 -46 -35 -83 -39
-83 -3 0 -11 10 -17 23 -6 12 -19 36 -30 53 -16 28 -17 39 -7 95 8 51 8 69 -4
92 -7 15 -18 27 -24 27 -23 0 3 18 35 24 48 9 86 56 86 107 0 27 4 39 14 39
25 0 28 18 7 39 -15 15 -19 28 -14 55 4 25 2 36 -6 36 -9 0 -12 -17 -10 -55 2
-42 -2 -60 -15 -73 -16 -16 -17 -16 -11 10 8 32 -16 51 -90 69 -61 14 -89 35
-48 34 27 0 28 2 28 48 1 54 -10 68 -29 41 -8 -10 -20 -15 -29 -11 -11 4 -14
2 -11 -7 3 -7 -2 -29 -10 -47 -14 -30 -15 -31 -15 -9 2 50 -1 59 -15 54 -10
-4 -15 1 -14 13 0 10 -3 27 -6 38 l-8 20 13 -20 c13 -19 14 -19 19 10 l7 30
13 -27 c18 -38 37 -42 57 -11 13 19 14 28 5 31 -6 2 -12 12 -12 23 0 22 -11
24 -28 7 -9 -9 -12 -9 -12 -1 0 7 10 19 22 27 22 16 22 16 2 16 -12 0 -37 -16
-57 -35 -20 -19 -42 -35 -49 -35 -7 0 -26 -7 -42 -15 -28 -15 -28 -15 -21 13
9 38 59 87 106 102 39 13 53 30 24 30 -26 0 -109 -48 -126 -73 -20 -27 -49
-110 -49 -136 0 -10 7 -38 16 -62 9 -24 15 -68 15 -98 -2 -56 10 -82 57 -133
l26 -28 -25 0 c-39 0 -66 -37 -74 -103 -5 -48 -3 -65 15 -101 28 -60 44 -70
109 -76 l56 -5 40 -74 c54 -102 119 -170 167 -178 33 -5 40 -2 72 33 l35 38
10 -28 c6 -15 11 -40 11 -56 0 -28 -2 -29 -26 -20 -38 15 -87 12 -112 -6 -34
-23 -64 -92 -65 -143 0 -65 18 -121 58 -180 l34 -51 -43 0 c-24 0 -58 -3 -75
-6 -39 -8 -43 16 -6 40 21 14 25 24 25 69 0 44 -4 58 -25 77 -14 13 -25 34
-25 47 0 25 -44 73 -66 73 -8 0 -25 18 -40 41 -25 41 -45 49 -25 11 6 -12 11
-25 11 -31 0 -19 -39 -12 -58 10 -9 11 -32 27 -49 34 -20 8 -33 21 -33 32 0
14 -2 15 -9 4 -6 -10 -13 -10 -29 -2 -16 8 -21 7 -26 -4 -3 -8 -10 -15 -16
-15 -14 0 19 34 47 49 29 15 96 14 113 -1 12 -11 12 -10 1 5 -19 25 -105 23
-155 -3 -29 -16 -41 -18 -52 -9 -10 8 -11 16 -4 29 15 29 12 54 -10 67 -24 16
-64 2 -79 -26 -18 -33 -12 -36 14 -7 13 14 33 26 43 26 28 0 37 -31 15 -47
-16 -13 -16 -15 0 -42 15 -25 15 -32 3 -56 l-14 -27 -23 31 c-12 17 -29 31
-36 31 -19 0 -16 -11 14 -42 31 -32 42 -74 18 -64 -12 4 -15 -3 -15 -33 l0
-39 -69 -12 c-83 -14 -125 -49 -144 -118 -8 -31 -19 -47 -35 -53 -21 -8 -22
-13 -16 -61 4 -29 13 -60 21 -70 17 -19 11 -24 -40 -33 l-37 -7 0 -204 0 -204
180 0 c126 0 180 3 180 11 0 8 5 8 15 -1 12 -10 16 -9 21 5 7 17 8 17 20 0 10
-13 17 -15 26 -8 16 13 68 23 68 13 0 -12 44 -20 54 -10 12 12 56 13 56 2 0
-12 181 -15 213 -3 15 6 27 7 27 2 0 -4 7 -8 15 -8 8 0 15 3 15 7 0 3 9 6 20
6 11 0 20 -4 20 -8 0 -4 5 -8 10 -8 6 0 10 7 10 15 0 13 3 13 26 -1 16 -11 28
-14 32 -7 11 15 41 23 48 12 4 -6 11 -6 20 2 11 9 14 8 14 -5 0 -21 16 -21 24
1 5 12 10 13 18 5 8 -8 17 -5 34 13 21 23 22 23 27 4 7 -28 27 -23 27 6 0 14
5 25 10 25 6 0 9 -3 9 -7 -3 -18 3 -47 7 -37 3 6 16 9 29 6 21 -4 25 0 25 19
0 19 2 21 10 9 8 -13 13 -13 30 -2 14 9 26 10 33 4 7 -6 21 -12 32 -15 19 -5
19 -5 -2 -12 -13 -4 -23 -11 -23 -16 0 -12 52 1 63 15 6 8 10 7 14 -1 2 -7 13
-13 23 -13 19 0 123 49 105 50 -5 0 -4 5 2 11 6 6 48 12 92 13 47 1 86 7 93
14 9 9 15 9 25 0 11 -9 13 -8 11 1 -2 8 5 15 15 16 9 2 17 -1 17 -7 0 -6 8 -7
18 -3 9 4 33 9 52 11 19 2 49 7 65 10 71 15 205 0 205 -22 0 -14 52 -3 76 17
7 6 20 9 29 6 8 -4 19 1 25 11 8 15 11 15 20 2 7 -10 12 -12 18 -4 4 6 23 11
42 10 19 -1 46 2 59 7 13 4 29 3 35 -2 6 -5 39 -5 81 2 51 7 70 7 73 -2 2 -6
8 -11 13 -11 6 0 8 4 5 8 -2 4 4 8 14 9 13 1 17 -3 13 -13 -4 -11 0 -15 13
-12 11 2 22 7 25 12 8 10 85 28 114 26 23 -1 65 -6 80 -9 6 -1 -8 -8 -29 -16
-22 -8 -44 -13 -50 -12 -5 1 -11 -5 -13 -14 -3 -13 8 -15 69 -13 165 6 215 15
220 41 4 18 54 27 64 11 5 -7 1 -9 -9 -5 -10 3 -17 2 -17 -3 0 -6 -7 -10 -16
-10 -8 0 -13 -4 -9 -9 7 -13 65 -11 65 2 0 11 30 36 44 37 5 0 2 -8 -7 -18
-26 -29 -20 -39 21 -37 20 1 43 -3 49 -8 9 -6 19 -2 32 14 17 21 21 22 36 9
16 -14 17 -13 11 6 -5 18 -2 22 21 27 16 3 37 9 47 13 15 6 17 4 11 -6 -6 -10
-4 -12 11 -6 31 12 39 12 36 -1 -1 -7 5 -13 14 -13 8 0 12 -4 9 -10 -9 -15 11
-12 24 3 13 17 5 28 -15 20 -10 -4 -12 0 -8 11 7 19 9 19 35 6 14 -8 25 -6 45
6 19 13 31 15 42 8 15 -9 135 -9 217 -1 17 2 38 4 49 5 13 2 17 8 13 22 -3 11
-1 20 4 20 5 0 9 -4 9 -9 0 -5 13 -9 30 -9 32 1 31 18 -1 18 -12 0 -17 4 -13
11 3 6 17 8 30 5 15 -4 24 -2 24 5 0 8 4 8 15 -1 8 -6 18 -9 23 -6 5 3 38 6
73 7 60 1 129 20 129 35 0 3 -7 3 -16 0 -8 -3 -22 0 -29 8 -12 11 -10 14 10
14 13 0 37 9 54 21 17 12 31 18 31 13 0 -11 68 -32 107 -32 27 0 30 -3 25 -25
-4 -21 -1 -25 19 -24 13 0 18 3 12 6 -23 9 -14 24 11 17 13 -3 27 -1 30 5 4 5
13 8 21 4 13 -4 15 18 15 149 l0 155 -25 13 c-32 17 -32 48 -1 60 l25 9 1 296
c1 317 -1 325 -49 270 -18 -21 -29 -25 -61 -22 -21 2 -44 1 -51 -4 -15 -9 -61
10 -53 22 3 5 -7 4 -23 -2 -15 -6 -40 -12 -56 -14 -43 -6 -99 -26 -129 -46
-52 -37 -68 -9 -21 36 27 25 27 25 5 25 -14 0 -26 8 -31 23 -6 15 -8 -3 -7
-55 2 -67 0 -78 -15 -78 -12 0 -16 -6 -12 -18 2 -10 -3 -25 -13 -33 -16 -13
-17 -12 -11 13 6 21 4 26 -7 22 -21 -8 -27 -31 -15 -58 8 -17 7 -34 -4 -67
-13 -38 -19 -44 -44 -44 -44 0 -73 -21 -73 -55 0 -34 -3 -35 -130 -50 -52 -6
-106 -14 -119 -17 l-24 -6 28 39 c16 21 45 57 65 79 61 67 108 130 126 168 15
30 15 43 6 75 -29 95 -134 130 -243 79 -30 -13 -75 -32 -101 -42 -30 -11 -45
-22 -42 -30 8 -20 -10 -25 -52 -14 -33 10 -36 13 -22 23 24 18 32 62 17 99
-11 29 -102 180 -152 251 -18 27 -19 34 -7 118 16 106 8 258 -16 317 -15 38
-15 45 -1 79 9 20 20 51 25 67 l9 30 12 -42 c15 -55 31 -55 31 0 0 24 3 79 7
122 5 68 8 75 19 60 13 -17 14 -17 20 -1 7 18 1 68 -12 100 -6 15 -4 18 8 13
14 -5 15 -1 8 24 -5 17 -21 51 -35 75 -22 38 -25 49 -16 79 13 48 5 44 -20
-10 l-22 -46 -21 21 c-12 11 -28 20 -35 20 -7 0 -11 6 -8 14 4 9 -3 16 -17 20
-12 3 -39 12 -59 21 -33 14 -36 18 -27 35 9 17 8 20 -14 20 -13 0 -26 -5 -28
-12 -2 -6 -10 -8 -17 -4 -9 6 -9 11 0 22 7 9 8 14 1 14 -6 0 -14 -5 -17 -10
-4 -6 -13 -7 -23 -1 -9 4 -22 6 -29 4 -6 -2 -14 5 -18 16 -6 21 -25 29 -25 11
0 -5 -7 -10 -16 -10 -10 0 -14 6 -10 15 7 18 8 19 -45 -1 -24 -9 -57 -16 -73
-15 -21 1 -27 -2 -23 -14 5 -11 1 -14 -16 -11 -12 2 -34 -5 -49 -15 -14 -11
-35 -19 -46 -19 -32 0 -51 -10 -46 -25 6 -15 -23 -28 -31 -15 -4 6 -14 6 -26
-1 -11 -5 -28 -8 -37 -6 -15 3 -14 5 3 12 21 10 34 19 67 48 19 18 19 19 1 32
-16 12 -14 15 29 25 49 13 57 36 9 27 -57 -12 -86 -20 -91 -26 -3 -3 -14 -11
-24 -17 -32 -17 -31 -34 2 -34 l29 0 -51 -51 c-28 -28 -64 -58 -81 -67 l-30
-17 36 -3 37 -3 -20 -51 c-10 -28 -17 -58 -15 -67 4 -20 -23 -85 -58 -141 -29
-46 -29 -62 0 -30 10 11 25 20 33 20 28 0 2 -52 -59 -119 -89 -97 -127 -172
-146 -283 -16 -104 -11 -222 13 -291 29 -83 74 -163 115 -205 55 -57 165 -121
231 -136 l53 -11 -3 -105 c-3 -64 -10 -117 -18 -135 -25 -51 -68 -122 -89
-145 -20 -22 -20 -22 2 -39 14 -12 21 -29 21 -54 0 -41 -2 -42 -93 -52 -33 -3
-73 -8 -90 -10 -16 -2 -68 -9 -115 -14 -47 -5 -111 -13 -142 -17 -43 -5 -58
-4 -58 6 0 6 42 80 94 163 114 185 154 274 149 337 -10 146 -96 179 -263 102
-85 -40 -99 -49 -177 -123 -41 -39 -44 -40 -78 -29 -29 9 -35 17 -35 39 0 15
-5 32 -10 37 -7 7 -7 27 0 62 8 33 8 57 2 69 -6 10 -8 30 -5 44 2 14 -1 61 -8
105 -6 43 -12 89 -11 100 0 12 26 68 57 125 32 57 71 129 88 159 69 128 102
177 128 189 33 15 62 73 78 161 7 36 31 102 54 147 39 78 43 82 85 93 61 15
107 63 117 119 6 39 4 46 -19 68 -14 13 -26 30 -26 38 0 8 -11 17 -25 21 -14
3 -25 8 -25 10 0 2 14 28 30 57 37 66 40 119 8 141 -33 23 -67 20 -78 -6z m74
-14 c13 -33 5 -70 -26 -121 -18 -29 -38 -53 -45 -53 -7 0 -13 -4 -13 -10 0 -5
16 -10 35 -10 28 0 37 -5 45 -24 5 -14 18 -30 30 -36 14 -8 20 -21 20 -45 0
-43 -22 -67 -87 -95 -26 -11 -55 -24 -63 -29 -15 -8 -53 -78 -86 -157 -22 -54
-38 -44 -38 23 0 58 39 149 66 156 17 5 18 8 6 29 -7 13 -19 27 -26 31 -15 10
-6 48 14 60 8 4 14 14 14 22 0 8 13 40 29 72 17 32 35 81 42 108 19 82 26 95
53 95 13 0 27 -7 30 -16z m272 -341 c-10 -10 -19 5 -10 18 6 11 8 11 12 0 2
-7 1 -15 -2 -18z m815 -15 c11 -21 11 -22 -4 -9 -10 7 -17 17 -17 22 0 15 9
10 21 -13z m-2464 -220 c-3 -7 -5 -2 -5 12 0 14 2 19 5 13 2 -7 2 -19 0 -25z
m1118 -28 c32 -33 30 -51 -2 -21 -13 13 -33 18 -57 17 -38 -1 -43 3 -24 22 20
20 53 13 83 -18z m945 14 c54 -16 133 -63 180 -106 65 -61 127 -172 150 -268
26 -109 15 -264 -22 -312 -7 -9 -28 -19 -45 -23 -26 -5 -33 -3 -33 9 0 9 -7
16 -15 16 -8 0 -15 7 -15 15 0 7 -7 18 -16 23 -11 6 -19 38 -29 108 -17 131
-22 147 -64 217 -23 40 -55 75 -93 103 -54 39 -63 43 -140 49 -84 6 -169 -4
-211 -26 -37 -20 -172 -142 -192 -174 -11 -16 -29 -54 -40 -84 -16 -40 -23
-50 -28 -38 -4 10 -4 31 0 47 6 32 -4 38 -26 18 -8 -8 -11 -8 -8 -2 9 15 -19
39 -28 24 -14 -22 -23 -8 -18 28 12 85 129 241 224 300 43 28 151 75 194 85
50 12 224 6 275 -9z m-450 -28 c0 -2 -7 -6 -15 -10 -8 -3 -15 -1 -15 4 0 6 7
10 15 10 8 0 15 -2 15 -4z m-610 -30 c0 -3 -4 -8 -10 -11 -5 -3 -10 -1 -10 4
0 6 5 11 10 11 6 0 10 -2 10 -4z m101 -13 c13 -16 12 -17 -3 -4 -10 7 -18 15
-18 17 0 8 8 3 21 -13z m-52 -48 c2 -3 -4 -12 -15 -20 -18 -14 -18 -15 0 -9
16 6 17 4 11 -17 -4 -13 -4 -21 0 -17 5 5 14 -1 22 -12 13 -18 11 -24 -15 -57
-17 -21 -60 -96 -97 -168 -36 -71 -70 -132 -74 -135 -5 -3 -24 -36 -44 -74
-21 -42 -37 -63 -42 -56 -4 6 -2 17 4 23 14 14 15 30 1 22 -5 -3 -10 0 -10 8
0 7 11 19 24 27 20 10 23 18 20 44 -4 24 1 39 25 66 17 19 31 40 30 45 0 6 -3
4 -6 -3 -2 -6 -10 -9 -15 -6 -7 4 -8 2 -4 -4 4 -7 3 -12 -2 -12 -14 0 -23 43
-11 55 7 7 13 5 19 -5 8 -13 10 -13 10 1 0 9 -9 19 -20 22 -13 3 -20 0 -20 -9
0 -8 -4 -14 -10 -14 -16 0 -12 22 8 36 20 16 36 18 27 4 -3 -5 1 -10 9 -10 8
0 16 -9 18 -21 3 -21 3 -21 30 4 15 14 29 22 32 19 6 -6 7 2 10 54 1 32 -11
35 -42 11 -9 -7 -16 -7 -24 1 -7 7 -4 14 11 24 11 7 21 17 21 21 0 12 -40 -2
-73 -25 -16 -11 -31 -18 -34 -15 -6 6 31 43 70 70 16 10 24 23 21 32 -4 9 10
37 32 66 35 45 42 50 68 45 16 -4 32 -8 35 -11z m-331 -32 c0 -16 12 -53 26
-83 26 -56 26 -80 -1 -45 -25 33 -43 82 -43 120 0 41 17 48 18 8z m134 -95
c-9 -9 -12 -7 -12 12 0 19 3 21 12 12 9 -9 9 -15 0 -24z m1085 1 c69 -26 162
-133 177 -204 5 -25 4 -27 -5 -12 -20 33 -121 136 -138 141 -9 2 -31 8 -50 11
l-35 7 26 -23 c21 -20 24 -28 16 -49 -5 -13 -12 -20 -16 -15 -4 6 -22 11 -40
12 -29 2 -32 0 -27 -17 4 -13 2 -20 -7 -20 -15 1 -48 24 -48 34 0 11 -27 36
-38 36 -5 0 -15 7 -22 15 -25 30 -91 8 -142 -46 -57 -62 -53 -12 5 54 25 28
120 82 160 91 32 7 152 -2 184 -15z m-1174 -105 c-3 -8 -11 -14 -19 -14 -8 0
-14 -5 -14 -12 0 -6 -2 -9 -5 -6 -4 3 -3 17 0 31 5 18 12 23 25 20 11 -3 16
-11 13 -19z m121 7 c14 -5 16 -10 8 -15 -7 -4 -22 0 -34 8 -24 17 -9 21 26 7z
m-102 -83 c-7 -7 -12 -8 -12 -2 0 6 3 14 7 17 3 4 9 5 12 2 2 -3 -1 -11 -7
-17z m-78 -63 c-15 -49 -45 -276 -48 -365 -1 -25 -6 -52 -11 -60 -5 -8 -11
-24 -12 -35 -8 -53 -26 -60 -41 -15 -10 28 -13 29 -64 27 -38 -1 -52 2 -50 11
3 17 -8 15 -29 -4 -16 -15 -20 -14 -41 6 -16 15 -19 24 -10 27 7 3 12 22 12
43 0 22 5 51 12 65 8 19 9 28 0 37 -14 14 12 68 32 68 8 0 16 3 18 8 5 11 104
62 120 62 22 0 43 29 57 77 10 38 58 109 67 100 2 -1 -4 -25 -12 -52z m116 13
c0 -24 -3 -29 -16 -24 -9 4 -23 1 -30 -5 -10 -8 -14 -8 -14 0 0 6 4 11 8 11 4
0 13 14 19 31 14 37 33 30 33 -13z m-40 22 c0 -5 -4 -10 -10 -10 -5 0 -10 5
-10 10 0 6 5 10 10 10 6 0 10 -4 10 -10z m1347 -132 c-2 -18 -4 -4 -4 32 0 36
2 50 4 33 2 -18 2 -48 0 -65z m-1337 27 c5 3 3 -10 -6 -30 -8 -20 -12 -40 -9
-44 2 -5 6 -29 6 -54 2 -33 -4 -52 -19 -72 -16 -20 -22 -23 -22 -11 0 9 -4 16
-9 16 -9 0 -7 -39 4 -92 2 -10 -1 -18 -6 -18 -15 0 -24 63 -21 144 2 33 4 37
17 26 13 -11 15 -6 16 31 1 24 1 55 0 69 0 14 2 19 5 13 10 -22 24 -14 25 15
0 15 3 21 6 14 2 -6 9 -10 13 -7z m-890 -36 c0 -5 -4 -9 -10 -9 -5 0 -10 7
-10 16 0 8 5 12 10 9 6 -3 10 -10 10 -16z m68 -24 c2 -2 -11 -6 -28 -10 -34
-7 -46 -3 -35 14 5 9 51 6 63 -4z m73 -20 c1 -8 3 -19 4 -25 1 -5 3 -14 4 -20
0 -5 8 -10 16 -10 9 0 15 -9 15 -22 -1 -21 -2 -21 -11 -5 -5 9 -17 17 -25 17
-8 0 -17 13 -20 30 -4 17 -13 30 -20 30 -8 0 -14 5 -14 10 0 17 50 12 51 -5z
m-41 -45 c0 -5 -5 -10 -11 -10 -5 0 -7 5 -4 10 3 6 8 10 11 10 2 0 4 -4 4 -10z
m30 -41 c0 -6 -4 -7 -10 -4 -5 3 -10 11 -10 16 0 6 5 7 10 4 6 -3 10 -11 10
-16z m2415 -75 c65 -97 115 -192 115 -219 0 -27 -41 -76 -47 -58 -3 8 -14 11
-27 7 -16 -4 -33 3 -54 21 -26 22 -31 32 -26 53 4 15 11 32 16 39 5 7 5 14 -2
18 -5 3 -10 13 -10 22 0 8 -8 27 -18 41 -11 15 -22 38 -25 52 -6 25 11 101 22
99 3 0 29 -34 56 -75z m-1672 -25 c13 -9 -1 -81 -15 -77 -7 3 -14 10 -16 18
-3 8 0 10 8 5 10 -6 12 2 7 41 -3 27 -3 42 0 34 3 -8 10 -18 16 -21z m-963
-14 c0 -8 -8 -15 -18 -15 -10 0 -23 -5 -30 -12 -8 -8 -12 -9 -12 -1 0 16 29
43 46 43 8 0 14 -7 14 -15z m1017 -62 c-4 -42 -3 -71 4 -80 25 -29 -19 -131
-51 -118 -8 3 -23 33 -34 66 -11 36 -23 58 -30 56 -8 -3 -12 10 -13 37 -2 35
0 39 11 24 7 -10 25 -22 41 -28 34 -13 40 -6 49 53 4 22 9 44 12 49 13 21 16
3 11 -59z m-831 21 c13 -18 14 -28 6 -36 -8 -8 -14 -4 -22 17 -6 15 -13 32
-16 36 -13 22 18 6 32 -17z m680 -61 c-10 -10 -19 5 -10 18 6 11 8 11 12 0 2
-7 1 -15 -2 -18z m1659 -51 c65 -97 61 -87 42 -126 -9 -20 -36 -49 -59 -67
l-43 -31 -3 37 c-2 20 2 43 9 51 9 11 9 21 1 37 -5 12 -13 31 -16 41 -5 15 -9
17 -18 8 -18 -18 -30 -14 -23 8 4 11 2 20 -4 20 -6 0 -11 -9 -11 -20 0 -11 -4
-20 -10 -20 -5 0 -10 5 -10 10 0 15 52 92 75 112 18 16 21 16 30 2 6 -9 24
-37 40 -62z m-2585 32 c0 -8 -4 -12 -10 -9 -5 3 -10 10 -10 16 0 5 5 9 10 9 6
0 10 -7 10 -16z m236 -34 c-6 -47 -4 -53 29 -97 19 -25 36 -51 36 -57 1 -6 2
-27 3 -46 2 -61 26 -42 46 35 10 39 29 95 43 125 l25 55 0 -81 c1 -44 3 -87 5
-95 2 -7 2 -11 0 -7 -2 4 -11 4 -19 1 -8 -3 -14 1 -14 8 0 8 -9 1 -20 -16 -11
-16 -20 -40 -20 -52 0 -12 -9 -29 -21 -37 -20 -14 -18 -43 2 -31 5 4 9 1 9 -4
0 -16 -14 -13 -42 9 -19 14 -24 26 -21 45 4 20 0 27 -23 35 -18 7 -24 14 -16
18 8 6 8 14 -2 34 -19 37 -31 153 -17 162 6 4 11 16 11 27 0 10 3 19 6 19 4 0
4 -23 0 -50z m459 -10 c-3 -5 -11 -10 -16 -10 -6 0 -7 5 -4 10 3 6 11 10 16
10 6 0 7 -4 4 -10z m841 -13 c-3 -14 2 -39 14 -62 11 -22 20 -56 20 -76 0 -20
7 -50 16 -67 17 -34 11 -57 -13 -48 -11 5 -14 -1 -11 -21 2 -17 -2 -28 -12
-30 -12 -4 -12 -3 -2 5 11 7 11 10 -2 15 -12 5 -15 14 -10 32 10 39 -5 112
-23 119 -9 4 -20 1 -25 -6 -6 -10 -10 -10 -19 2 -8 12 -9 12 -6 -5 2 -11 9
-19 15 -17 7 1 12 -2 12 -8 0 -5 10 -10 23 -10 20 -1 21 -2 4 -14 -10 -8 -15
-20 -11 -30 3 -9 1 -23 -6 -31 -7 -9 -9 -27 -5 -47 5 -25 4 -29 -4 -18 -6 8
-11 24 -12 35 -1 29 -32 78 -56 90 -12 6 -28 17 -37 24 -9 8 -26 15 -39 16
-12 1 -25 3 -29 4 -4 0 -5 12 -2 26 2 14 0 25 -5 25 -9 0 -43 -37 -73 -80
l-17 -25 0 24 c-2 49 148 159 254 186 69 18 68 18 61 -8z m1647 1 c17 -9 17
-10 -3 -35 -18 -23 -19 -28 -5 -43 19 -21 19 -58 0 -104 -9 -20 -13 -42 -9
-48 4 -7 3 -8 -4 -4 -7 4 -9 19 -5 36 4 20 1 30 -7 30 -7 0 -10 7 -6 15 3 8 1
15 -4 15 -6 0 -10 -8 -10 -17 0 -10 -3 -27 -6 -39 -3 -13 1 -28 12 -38 11 -12
13 -20 7 -24 -6 -4 -20 -23 -30 -42 -24 -43 -49 -47 -46 -7 1 17 -3 27 -12 27
-18 0 -49 46 -50 75 -1 11 -5 26 -9 33 -4 6 -2 21 4 32 9 16 8 20 -4 20 -10 0
-13 -6 -9 -17 7 -17 -5 -16 -51 3 -17 7 -16 3 5 -27 33 -43 66 -123 72 -172 7
-52 -4 -87 -33 -106 -23 -16 -23 -16 -17 17 4 18 2 32 -3 32 -6 0 -10 -7 -10
-16 0 -20 -28 -43 -52 -44 -22 0 -22 16 -3 50 41 72 -3 189 -86 227 -55 25
-79 34 -79 27 0 -7 33 -58 43 -65 13 -9 4 -54 -10 -52 -7 2 -24 -9 -38 -23
-31 -31 -40 -27 -25 10 14 37 13 52 -5 69 -13 14 -12 20 11 56 31 46 80 61
137 40 32 -11 36 -10 95 35 91 70 192 100 245 74z m-3105 -31 c7 -5 11 -12 8
-14 -5 -5 -76 24 -76 32 0 8 52 -6 68 -18z m832 -21 c0 -13 -7 -29 -15 -36
-17 -14 -20 -3 -9 38 8 29 24 28 24 -2z m40 -1 c0 -14 -4 -25 -10 -25 -5 0
-10 11 -10 25 0 14 5 25 10 25 6 0 10 -11 10 -25z m667 -11 c8 -22 -15 -43
-27 -24 -5 8 -10 21 -10 28 0 17 30 15 37 -4z m428 6 c3 -5 1 -10 -4 -10 -6 0
-11 5 -11 10 0 6 2 10 4 10 3 0 8 -4 11 -10z m1830 -19 c-3 -6 -11 -8 -17 -5
-6 4 -5 9 3 15 16 10 23 4 14 -10z m-182 -2 c-18 -5 -32 -15 -30 -22 1 -8 -11
-12 -33 -12 -35 0 -105 -36 -112 -57 -2 -6 -11 -9 -18 -6 -24 8 58 77 110 93
25 7 61 14 80 13 l35 0 -32 -9z m-447 -38 c-11 -18 -36 -13 -36 7 0 10 3 22 7
26 10 10 37 -20 29 -33z m-552 16 c16 -12 15 -16 -15 -57 -52 -73 -94 -106
-117 -91 -9 5 -7 14 9 32 12 13 25 23 30 22 5 -2 8 0 7 5 -4 13 45 102 57 102
6 0 19 -6 29 -13z m-1814 -37 c0 -16 -4 -30 -10 -30 -11 0 -14 43 -3 53 11 12
13 8 13 -23z m205 -10 c-5 -15 -10 -19 -17 -12 -5 5 -7 20 -3 32 5 15 10 19
17 12 5 -5 7 -20 3 -32z m-335 9 c0 -8 5 -7 16 2 14 11 15 9 8 -27 -9 -53 -23
-77 -40 -70 -8 3 -14 1 -14 -3 0 -5 -3 -18 -7 -28 -6 -16 -5 -16 10 -4 12 9
17 10 17 2 0 -6 -16 -21 -35 -32 -19 -12 -32 -25 -29 -30 8 -13 -6 -11 -20 4
-7 7 -15 27 -18 45 -3 25 0 33 14 38 10 3 18 10 18 15 0 6 6 17 13 24 31 35
37 45 37 60 0 8 7 15 15 15 8 0 15 -5 15 -11z m770 -20 c0 -5 -4 -9 -10 -9 -5
0 -10 7 -10 16 0 8 5 12 10 9 6 -3 10 -10 10 -16z m-235 -19 c-10 -11 -20 -18
-23 -15 -3 3 3 14 13 25 10 11 20 18 23 15 3 -3 -3 -14 -13 -25z m-875 -11 c0
-11 -7 -19 -16 -19 -11 0 -14 5 -10 16 3 9 6 20 6 25 0 6 5 7 10 4 6 -3 10
-15 10 -26z m733 17 c9 -7 17 -25 17 -40 0 -16 4 -25 10 -21 6 3 10 15 10 26
0 10 5 19 11 19 14 0 3 -53 -21 -99 -11 -23 -19 -30 -24 -22 -6 9 -13 8 -27
-5 -18 -16 -19 -16 -19 12 l-1 29 -18 -22 c-11 -13 -22 -23 -26 -23 -4 0 -2 6
4 13 6 8 9 16 6 19 -3 3 2 22 11 44 9 21 20 49 25 62 10 25 17 27 42 8z m921
-5 c3 -5 -3 -20 -14 -32 l-19 -24 -1 26 c0 35 20 53 34 30z m-656 -27 c29 -20
47 -56 62 -126 13 -57 7 -109 -22 -180 -11 -30 -33 -39 -24 -10 11 34 6 162
-5 162 -4 0 -11 10 -15 23 -8 29 -34 58 -45 51 -5 -3 -9 -18 -9 -34 0 -16 -7
-35 -15 -44 -8 -8 -15 -21 -15 -30 0 -19 -20 -32 -21 -14 -1 7 -1 17 0 21 3
18 -20 87 -29 87 -6 0 -10 -12 -10 -27 0 -16 -5 -35 -10 -43 -8 -11 -10 2 -8
45 1 33 -2 68 -6 78 -13 28 12 20 45 -15 16 -18 29 -40 29 -50 0 -21 16 -32
25 -18 4 6 -7 35 -24 65 l-31 54 33 10 c48 14 70 13 95 -5z m1415 -2 c10 -10
21 -40 26 -67 8 -40 6 -51 -6 -61 -11 -7 -14 -19 -10 -35 6 -22 3 -24 -38 -27
-41 -3 -43 -1 -38 20 3 13 15 33 25 45 12 13 17 27 12 34 -5 9 -2 10 11 5 13
-5 15 -3 8 6 -13 16 -24 98 -14 98 5 0 15 -8 24 -18z m-1987 -40 c-18 -16 -18
-16 -6 6 6 13 14 21 18 18 3 -4 -2 -14 -12 -24z m-456 -6 c0 -2 -7 -7 -16 -10
-8 -3 -12 -2 -9 4 6 10 25 14 25 6z m842 -63 c-2 -7 -8 -13 -13 -13 -5 0 -9
-6 -9 -14 0 -8 -7 -16 -15 -20 -8 -3 -15 -15 -15 -26 0 -11 -4 -20 -9 -20 -21
0 -20 21 4 55 13 20 30 53 37 72 l13 36 6 -29 c3 -16 3 -35 1 -41z m816 32
c-13 -29 -28 -33 -28 -7 0 22 8 32 26 32 11 0 11 -5 2 -25z m-508 -5 c0 -5 -5
-10 -11 -10 -5 0 -7 5 -4 10 3 6 8 10 11 10 2 0 4 -4 4 -10z m1523 -40 c3 -11
1 -18 -4 -14 -5 3 -9 12 -9 20 0 20 7 17 13 -6z m-2329 -6 c7 -20 7 -21 -16
-26 -17 -3 -20 6 -11 30 7 17 20 15 27 -4z m2679 0 c21 -8 22 -18 2 -34 -12
-10 -15 -10 -15 0 0 9 -5 8 -18 -3 -26 -24 -42 -21 -42 8 0 24 27 48 45 40 6
-3 18 -8 28 -11z m-1419 -41 c-9 -21 -18 -44 -21 -50 -3 -7 -9 -13 -14 -13
-12 0 -1 48 17 78 23 36 36 25 18 -15z m886 -22 c-12 -47 -37 -71 -26 -25 4
16 8 36 9 44 2 15 18 32 25 25 2 -1 -2 -21 -8 -44z m-2429 19 c5 0 9 -7 9 -15
0 -18 -21 -20 -38 -3 -17 17 -15 31 4 24 9 -3 20 -6 25 -6z m274 -50 c-5 -14
-2 -20 9 -20 14 0 14 -3 4 -20 -13 -20 -33 -26 -42 -12 -5 9 20 72 29 72 4 0
3 -9 0 -20z m2105 14 c0 -8 -19 -13 -24 -6 -3 5 1 9 9 9 8 0 15 -2 15 -3z
m-2657 -52 c12 -12 16 -22 10 -22 -6 0 -13 6 -16 14 -6 15 -56 13 -66 -3 -4
-6 -22 -8 -45 -4 -38 6 -38 20 1 26 13 2 25 6 29 10 13 13 66 0 87 -21z m1048
-9 c-12 -20 -14 -14 -5 12 4 9 9 14 11 11 3 -2 0 -13 -6 -23z m-535 -40 c-11
-11 -24 9 -18 29 l5 22 9 -24 c5 -12 6 -25 4 -27z m-561 17 c3 -5 -1 -10 -10
-10 -9 0 -13 5 -10 10 3 6 8 10 10 10 2 0 7 -4 10 -10z m642 -31 c-9 -6 -17
-19 -17 -29 0 -11 -5 -20 -12 -20 -6 0 -8 3 -5 7 4 3 2 12 -4 19 -7 9 -3 16
18 26 31 16 49 13 20 -3z m2894 -27 c0 -11 3 -12 6 -4 2 6 13 12 23 12 24 0
27 -12 20 -109 -4 -70 -8 -86 -25 -95 -11 -6 -23 -15 -26 -19 -3 -5 -9 -1 -12
7 -5 13 -16 15 -54 11 -27 -3 -84 -7 -128 -10 -44 -2 -93 -7 -110 -10 -51 -10
-418 -28 -380 -18 30 7 43 23 19 23 -10 0 -27 11 -36 24 -16 22 -16 23 0 23
41 0 53 4 47 14 -4 6 -14 8 -22 5 -10 -4 -13 -2 -10 8 3 7 1 19 -4 25 -6 8 -5
8 3 1 18 -15 31 -12 25 4 -4 10 -1 13 9 9 10 -4 12 0 8 12 -5 13 -3 16 7 13 7
-2 24 1 37 8 27 14 52 8 65 -13 6 -9 13 -11 20 -4 7 5 29 9 50 9 21 0 43 4 50
10 6 5 34 8 62 6 27 -1 55 2 62 8 7 6 13 7 13 3 0 -4 -10 -15 -22 -26 -19 -15
-20 -18 -6 -19 9 0 19 4 23 10 3 5 12 7 21 3 8 -3 23 2 33 11 11 10 22 13 25
8 8 -13 56 -3 88 19 14 11 30 19 35 19 5 0 16 9 26 20 10 12 22 18 27 15 6 -3
10 -1 10 5 0 18 20 1 21 -18z m-2941 -12 c0 -5 -2 -10 -4 -10 -2 0 -12 -3 -22
-7 -16 -6 -17 -5 -4 10 17 19 30 22 30 7z m-463 -16 c3 -9 2 -24 -4 -33 -7
-11 -6 -19 4 -26 12 -9 12 -13 0 -29 -17 -23 -40 -12 -32 15 7 20 -4 25 -21
10 -18 -17 -61 -21 -79 -7 -28 20 -12 46 28 46 21 0 41 8 52 20 22 24 43 26
52 4z m2353 -106 c0 -6 -8 -7 -17 -4 -16 5 -15 4 1 -9 10 -8 19 -28 20 -45 1
-16 4 -30 9 -30 16 0 6 -20 -10 -21 -11 0 -13 -3 -5 -6 20 -8 14 -20 -13 -25
-17 -4 -25 -1 -25 8 0 18 -9 18 -32 -3 -19 -17 -39 -21 -150 -27 -68 -5 -73
-2 -69 32 1 6 -4 12 -12 12 -8 0 -22 9 -32 20 -10 11 -22 20 -26 20 -4 0 6
-13 22 -29 48 -48 40 -58 -53 -67 -99 -9 -172 -9 -252 -1 -70 8 -77 13 -48 33
17 11 20 21 15 44 -5 28 -3 30 25 30 22 0 31 -6 36 -22 6 -23 7 -23 18 -3 16
29 16 29 33 15 13 -11 14 -10 10 3 -4 8 -2 18 4 22 6 3 11 1 11 -6 0 -7 8 -5
22 7 12 10 18 14 15 8 -5 -8 6 -13 32 -16 22 -2 37 0 35 4 -7 10 45 42 54 33
4 -4 1 -10 -5 -12 -7 -3 -13 -9 -13 -14 0 -5 11 -4 24 2 24 11 66 -2 66 -20 0
-12 62 -12 77 0 7 6 16 8 22 5 5 -3 11 0 14 8 3 7 18 12 37 11 19 -1 34 4 37
12 3 7 22 16 43 19 22 4 41 13 44 20 6 15 36 8 36 -8z m-3070 -38 c0 -5 -4
-10 -10 -10 -5 0 -10 5 -10 10 0 6 5 10 10 10 6 0 10 -4 10 -10z m2134 -44
c17 6 19 1 20 -51 1 -18 6 -29 14 -27 28 5 9 -28 -23 -39 -19 -7 -35 -19 -35
-25 0 -21 -11 -23 -161 -35 -113 -9 -156 -8 -199 1 l-55 13 35 14 c19 8 50 31
68 51 l32 37 19 -22 c11 -13 22 -23 26 -23 4 0 2 7 -5 15 -10 13 -9 15 9 16
33 2 39 4 47 12 4 4 15 7 25 7 10 0 22 6 26 14 4 7 33 25 63 39 48 23 56 25
66 12 7 -9 19 -13 28 -9z m-2124 -22 c0 -8 -4 -14 -9 -14 -11 0 -22 26 -14 34
9 9 23 -3 23 -20z m1780 -44 c-24 -15 -37 -11 -16 5 11 8 22 12 25 9 3 -3 -1
-9 -9 -14z m-588 -82 c-7 -7 -12 -8 -12 -2 0 14 12 26 19 19 2 -3 -1 -11 -7
-17z m948 2 c0 -5 -5 -10 -11 -10 -5 0 -7 5 -4 10 3 6 8 10 11 10 2 0 4 -4 4
-10z m1783 -22 c-4 -7 -6 -22 -5 -33 2 -18 1 -18 -8 -3 -11 18 -4 48 12 48 5
0 6 -6 1 -12z m137 -28 c0 -5 -2 -10 -4 -10 -3 0 -8 5 -11 10 -3 6 -1 10 4 10
6 0 11 -4 11 -10z m-810 -140 c0 -16 -51 -33 -64 -20 -7 7 -3 10 11 10 12 0
25 5 28 10 8 13 25 13 25 0z m-280 -4 c0 -2 -7 -6 -15 -10 -8 -3 -15 -1 -15 4
0 6 7 10 15 10 8 0 15 -2 15 -4z m-1500 -91 c0 -8 -4 -15 -10 -15 -5 0 -10 7
-10 15 0 8 5 15 10 15 6 0 10 -7 10 -15z"/>
<path d="M2231 2004 c0 -11 3 -14 6 -6 3 7 2 16 -1 19 -3 4 -6 -2 -5 -13z"/>
<path d="M3230 1290 c0 -11 7 -20 15 -20 8 0 15 9 15 20 0 11 -7 20 -15 20 -8
0 -15 -9 -15 -20z"/>
<path d="M3284 1259 c0 -10 4 -19 8 -19 4 0 8 6 8 14 0 8 -4 17 -8 20 -4 2 -8
-4 -8 -15z"/>
<path d="M3315 1250 c-3 -5 -1 -10 4 -10 6 0 11 5 11 10 0 6 -2 10 -4 10 -3 0
-8 -4 -11 -10z"/>
<path d="M1931 1167 c-46 -16 -51 -34 -9 -33 30 1 57 19 58 39 0 9 -8 8 -49
-6z"/>
<path d="M1990 1165 c0 -8 2 -15 4 -15 2 0 6 7 10 15 3 8 1 15 -4 15 -6 0 -10
-7 -10 -15z"/>
<path d="M3574 1128 c-6 -9 44 -94 50 -86 11 13 23 68 15 68 -5 0 -9 -7 -9
-15 0 -8 -4 -15 -9 -15 -12 0 -22 27 -15 43 5 15 -24 19 -32 5z"/>
<path d="M1232 1000 c-8 -13 -8 -20 -2 -20 6 0 13 7 17 15 9 24 -1 27 -15 5z"/>
<path d="M3646 641 c-4 -7 -5 -15 -2 -18 9 -9 19 4 14 18 -4 11 -6 11 -12 0z"/>
<path d="M2733 505 c-8 -9 -9 -16 -3 -20 14 -8 30 3 30 21 0 18 -11 17 -27 -1z"/>
<path d="M2201 434 c0 -11 3 -14 6 -6 3 7 2 16 -1 19 -3 4 -6 -2 -5 -13z"/>
<path d="M2735 2830 c0 -79 7 -101 19 -57 10 38 7 102 -6 120 -11 14 -13 4
-13 -63z"/>
<path d="M3586 2901 c-4 -7 -5 -15 -2 -18 9 -9 19 4 14 18 -4 11 -6 11 -12 0z"/>
<path d="M3616 2881 c-4 -7 -5 -15 -2 -18 9 -9 19 4 14 18 -4 11 -6 11 -12 0z"/>
<path d="M1449 2839 c-16 -17 -52 -42 -79 -56 -63 -31 -60 -38 6 -17 60 20 67
26 93 70 25 42 18 43 -20 3z"/>
<path d="M2686 2783 c-6 -14 -5 -15 5 -6 7 7 10 15 7 18 -3 3 -9 -2 -12 -12z"/>
<path d="M3790 2769 c0 -5 5 -7 10 -4 6 3 10 8 10 11 0 2 -4 4 -10 4 -5 0 -10
-5 -10 -11z"/>
<path d="M1210 2743 c-68 -7 -129 -34 -160 -69 -30 -34 -39 -64 -20 -64 6 0
10 4 10 8 0 4 15 24 33 44 33 36 114 68 174 68 15 0 35 5 43 10 16 10 -6 11
-80 3z"/>
<path d="M1428 2742 c-27 -2 -48 -6 -48 -10 0 -15 56 -29 80 -20 27 10 39 3
22 -14 -7 -7 -12 -14 -12 -17 0 -13 70 -10 109 4 38 13 41 13 41 -4 0 -10 -18
-34 -39 -54 l-39 -35 29 -6 c19 -4 33 -14 39 -31 13 -33 26 -32 33 4 3 16 9
41 13 56 6 25 5 26 -14 14 -31 -19 -38 -4 -13 27 30 38 28 58 -6 50 -62 -13
-123 -18 -123 -10 0 5 7 19 15 30 16 23 15 24 -87 16z"/>
<path d="M4380 2731 c0 -12 5 -21 10 -21 6 0 10 6 10 14 0 8 -4 18 -10 21 -5
3 -10 -3 -10 -14z"/>
<path d="M4295 2720 c3 -5 8 -10 11 -10 2 0 4 5 4 10 0 6 -5 10 -11 10 -5 0
-7 -4 -4 -10z"/>
<path d="M3870 2710 c0 -5 5 -10 10 -10 6 0 10 5 10 10 0 6 -4 10 -10 10 -5 0
-10 -4 -10 -10z"/>
<path d="M3306 2701 c-3 -4 -26 -14 -51 -21 -27 -8 -41 -16 -35 -20 17 -11 91
14 102 33 9 17 -6 25 -16 8z"/>
<path d="M4010 2691 c-15 -28 -12 -33 10 -19 21 13 27 38 10 38 -5 0 -14 -9
-20 -19z"/>
<path d="M1130 2599 c0 -11 5 -17 10 -14 6 3 10 13 10 21 0 8 -4 14 -10 14 -5
0 -10 -9 -10 -21z"/>
<path d="M846 2575 c-21 -7 -46 -21 -55 -31 -15 -15 -14 -16 17 -10 18 3 40
13 49 22 11 11 29 15 60 12 46 -3 58 6 21 16 -33 8 -48 7 -92 -9z"/>
<path d="M3790 2535 c-7 -11 -9 -17 -5 -13 5 4 14 0 21 -10 13 -16 13 -16 14
2 0 12 5 16 16 12 8 -3 12 -2 9 4 -3 6 -1 10 5 10 6 0 8 4 5 10 -10 16 -52 7
-65 -15z"/>
<path d="M1620 2491 c0 -6 5 -13 10 -16 15 -9 70 -121 70 -143 0 -11 11 -24
26 -31 14 -6 24 -8 22 -4 -2 5 -21 44 -42 88 -37 80 -61 115 -78 115 -4 0 -8
-4 -8 -9z"/>
<path d="M3957 2373 c-4 -6 -3 -21 1 -34 5 -13 11 -18 15 -12 4 6 3 21 -1 34
-5 13 -11 18 -15 12z"/>
<path d="M847 1752 c-33 -20 -30 -36 8 -40 31 -4 45 11 38 39 -6 23 -10 23
-46 1z"/>
<path d="M4317 1433 c-11 -10 -8 -43 3 -43 6 0 10 11 10 25 0 26 -2 29 -13 18z"/>
<path d="M4246 1408 c-11 -15 -12 -26 -5 -40 13 -24 19 -23 18 5 -1 12 2 30 6
40 10 24 -1 21 -19 -5z"/>
<path d="M4391 1391 c-7 -13 -6 -24 3 -37 13 -17 14 -15 13 19 -1 42 -3 44
-16 18z"/>
<path d="M4296 1352 c-3 -6 1 -16 10 -23 14 -12 14 -14 -3 -20 -10 -4 -33 -8
-50 -8 -18 -1 -33 -6 -33 -12 0 -6 8 -8 18 -5 9 3 53 10 97 16 99 14 111 18
98 31 -6 6 -24 4 -52 -6 -53 -18 -51 -18 -51 -1 0 18 -26 40 -34 28z"/>
<path d="M241 974 c-26 -33 -15 -68 23 -72 14 -2 26 1 26 7 0 6 -11 11 -25 11
-32 0 -33 25 -3 57 12 13 17 23 10 23 -6 0 -20 -12 -31 -26z"/>
<path d="M3405 140 c-3 -5 -2 -10 4 -10 5 0 13 5 16 10 3 6 2 10 -4 10 -5 0
-13 -4 -16 -10z"/>
<path d="M3466 141 c-8 -12 18 -21 33 -11 10 5 8 9 -4 14 -21 8 -23 8 -29 -3z"/>
<path d="M2722 130 c-41 -10 -53 -20 -23 -20 12 0 19 -4 16 -10 -3 -5 7 -4 23
3 28 12 42 30 25 33 -4 1 -23 -2 -41 -6z"/>
<path d="M1646 63 c-6 -14 -5 -15 5 -6 7 7 10 15 7 18 -3 3 -9 -2 -12 -12z"/>
<path d="M2160 70 c0 -5 5 -10 11 -10 5 0 7 5 4 10 -3 6 -8 10 -11 10 -2 0 -4
-4 -4 -10z"/>
<path d="M2702 58 c-14 -14 -16 -28 -3 -28 9 0 24 30 18 36 -2 2 -9 -2 -15 -8z"/>
<path d="M1610 44 c0 -8 5 -12 10 -9 6 4 8 11 5 16 -9 14 -15 11 -15 -7z"/>
<path d="M2077 53 c-4 -3 -7 -11 -7 -17 0 -6 5 -5 12 2 6 6 9 14 7 17 -3 3 -9
2 -12 -2z"/>
<path d="M2223 53 c9 -2 23 -2 30 0 6 3 -1 5 -18 5 -16 0 -22 -2 -12 -5z"/>
<path d="M2410 50 c0 -5 5 -10 10 -10 6 0 10 5 10 10 0 6 -4 10 -10 10 -5 0
-10 -4 -10 -10z"/>
<path d="M2371 36 c-8 -10 -9 -16 -1 -21 5 -3 13 1 16 10 9 22 -1 29 -15 11z"/>
<path d="M1909 36 c-2 -2 -49 -7 -104 -10 -300 -19 -338 -28 -112 -25 81 0
147 5 147 10 0 13 34 11 48 -3 10 -10 17 -10 32 0 12 7 20 8 20 2 0 -6 8 -5
20 2 18 12 19 13 2 20 -20 8 -47 10 -53 4z"/>
<path d="M1997 33 c-4 -3 -7 -13 -7 -20 0 -12 3 -12 15 1 8 8 15 17 15 20 0 8
-15 7 -23 -1z"/>
<path d="M2445 30 c3 -5 8 -10 11 -10 2 0 4 5 4 10 0 6 -5 10 -11 10 -5 0 -7
-4 -4 -10z"/>
<path d="M2040 20 c0 -5 5 -10 10 -10 6 0 10 5 10 10 0 6 -4 10 -10 10 -5 0
-10 -4 -10 -10z"/>
<path d="M2330 14 c0 -8 5 -12 10 -9 6 3 10 10 10 16 0 5 -4 9 -10 9 -5 0 -10
-7 -10 -16z"/>
</g>
</svg>
